<?xml version="1.0" encoding="iso-8859-1"?>
<!-- Generator: Adobe Illustrator 19.0.0, SVG Export Plug-In . SVG Version: 6.00 Build 0)  -->
<svg xmlns="http://www.w3.org/2000/svg" xmlns:xlink="http://www.w3.org/1999/xlink" version="1.1" id="Capa_1" x="0px" y="0px" viewBox="0 0 512.002 512.002" style="enable-background:new 0 0 512.002 512.002;" xml:space="preserve" width="100px" height="100px">
<g>
	<g>
		<path d="M379.506,208.263c-0.439-0.747-0.886-1.485-1.34-2.217c-2.185-3.519-6.809-4.599-10.328-2.416    c-3.52,2.186-4.601,6.81-2.416,10.328c0.394,0.634,0.779,1.273,1.159,1.916c9.957,16.914,15.221,37.119,15.221,58.432    c0,21.793-5.719,42.962-16.153,59.975c-7.726-8.597-17.143-15.316-27.655-19.785V186.399c3.172,1.869,6.258,4.031,9.233,6.487    c3.194,2.636,7.922,2.184,10.559-1.012c2.636-3.194,2.184-7.922-1.012-10.559c-5.902-4.87-12.205-8.812-18.78-11.786v-20.855    c0-25.235-7.189-49.739-20.792-70.864c-13.234-20.553-31.865-36.953-53.878-47.429c-4.547-2.162-10.102-2.161-14.643,0    c-22.014,10.475-40.645,26.876-53.88,47.429c-13.603,21.121-20.792,45.626-20.792,70.864v20.855    c-16.484,7.464-31.106,21.057-41.514,38.735c-11.314,19.22-17.295,42.056-17.295,66.041c0,25.77,7.177,50.885,20.209,70.72    c2.21,3.363,5.928,5.508,10.004,5.739c0.223,0.011,0.445,0.018,0.664,0.018c3.802,0,7.378-1.677,9.812-4.6    c5.395-6.484,11.924-11.763,19.231-15.621c2.436,6.451,8.651,11.06,15.938,11.06h6.263v19.66c0,6.892,5.607,12.5,12.5,12.5h92.36    c6.892,0,12.5-5.608,12.5-12.5v-19.66h6.262c7.287,0,13.503-4.608,15.939-11.059c7.309,3.857,13.836,9.135,19.23,15.618    c2.432,2.924,6.009,4.602,9.813,4.602c0.223,0,0.444-0.007,0.722-0.02c4.019-0.229,7.736-2.373,9.947-5.737    c13.031-19.834,20.208-44.949,20.208-70.719C396.802,250.32,390.822,227.483,379.506,208.263z M174.01,314.496L174.01,314.496    c-10.514,4.469-19.931,11.188-27.656,19.786c-10.435-17.014-16.153-38.183-16.153-59.976c0-21.311,5.264-41.517,15.221-58.432    c7.488-12.72,17.421-22.89,28.588-29.468V314.496z M299.682,358.782h-87.36v-17.16h87.36V358.782z M322.993,288.29h-15.992    c-4.143,0-7.5,3.357-7.5,7.5s3.357,7.5,7.5,7.5h15.992v21.266c0,1.14-0.92,2.066-2.05,2.066H191.059    c-1.13,0-2.05-0.927-2.05-2.066V303.29h83.992c4.143,0,7.5-3.357,7.5-7.5s-3.357-7.5-7.5-7.5h-83.992V148.674    c0-22.353,6.363-44.048,18.403-62.743c11.723-18.205,28.222-32.729,47.716-42.006c0.274-0.131,0.568-0.197,0.873-0.197    c0.305,0,0.6,0.066,0.876,0.198c19.491,9.275,35.99,23.8,47.713,42.005c12.039,18.697,18.403,40.394,18.403,62.743V288.29z" fill="#ed900c"/>
	</g>
</g>
<g>
	<g>
		<path d="M256.001,139.992c-30.867,0-55.98,25.149-55.98,56.063c0,30.911,25.113,56.061,55.98,56.061s55.979-25.149,55.979-56.061    C311.98,165.142,286.868,139.992,256.001,139.992z M256.001,237.116c-22.595,0-40.98-18.42-40.98-41.061    s18.384-41.063,40.98-41.063s40.979,18.421,40.979,41.063C296.98,218.697,278.596,237.116,256.001,237.116z" fill="#ed900c"/>
	</g>
</g>
<g>
	<g>
		<path d="M256.001,162.047c-18.728,0-33.963,15.256-33.963,34.007c0,18.751,15.235,34.006,33.963,34.006    c18.727,0,33.962-15.255,33.962-34.006C289.963,177.303,274.728,162.047,256.001,162.047z M256.001,215.06    c-10.456,0-18.963-8.526-18.963-19.006c0-10.48,8.507-19.007,18.963-19.007c10.456,0,18.962,8.526,18.962,19.007    C274.963,206.533,266.457,215.06,256.001,215.06z" fill="#ed900c"/>
	</g>
</g>
<g>
	<g>
		<path d="M160.978,488.861c-14.051-21.467-35.73-36.066-60.197-41.2c5.762-5.223,12.285-9.643,19.445-13.054    c3.739-1.781,5.327-6.257,3.545-9.996c-1.781-3.74-6.258-5.327-9.996-3.545c-12.378,5.898-23.185,14.297-31.861,24.56    c-0.271-0.002-0.54-0.013-0.811-0.013c-32.291,0-62.151,16.168-79.877,43.249c-2.269,3.466-1.298,8.114,2.168,10.383    c1.267,0.829,2.691,1.226,4.101,1.226c2.445,0,4.843-1.194,6.282-3.393c14.944-22.832,40.113-36.464,67.326-36.464    c27.212,0,52.38,13.631,67.324,36.462c2.269,3.467,6.918,4.438,10.383,2.168C162.276,496.975,163.246,492.327,160.978,488.861z" fill="#ed900c"/>
	</g>
</g>
<g>
	<g>
		<path d="M510.776,488.86c-17.726-27.08-47.586-43.247-79.875-43.247c-0.277,0-0.553,0.011-0.829,0.013    c-17.788-20.979-44.207-33.786-72.801-33.786c-18.058,0-35.438,5.024-50.602,14.55c-4.355-2.734-8.927-5.107-13.668-7.102v-30.555    c0-4.143-3.357-7.5-7.5-7.5s-7.5,3.357-7.5,7.5v25.673c-4.734-1.118-9.579-1.878-14.501-2.263v-23.41c0-4.143-3.357-7.5-7.5-7.5    s-7.5,3.357-7.5,7.5v23.41c-4.557,0.355-9.05,1.025-13.447,2.012v-25.422c0-4.143-3.357-7.5-7.5-7.5s-7.5,3.357-7.5,7.5v30.123    c-5.118,2.081-10.045,4.597-14.722,7.532c-15.161-9.524-32.542-14.549-50.602-14.549c-1.705,0-3.43,0.046-5.126,0.136    c-4.137,0.219-7.313,3.75-7.093,7.886c0.219,4.137,3.77,7.325,7.886,7.093c1.434-0.076,2.892-0.114,4.333-0.114    c13.261,0,26.081,3.222,37.61,9.355c-6.117,5.493-11.584,11.817-16.217,18.895c-2.268,3.466-1.298,8.114,2.168,10.383    c1.267,0.829,2.691,1.226,4.101,1.226c2.445,0,4.843-1.194,6.282-3.394c14.944-22.833,40.113-36.465,67.326-36.465    c27.212,0,52.38,13.631,67.324,36.463c2.27,3.467,6.919,4.436,10.383,2.168c3.466-2.268,4.437-6.917,2.168-10.383    c-4.632-7.077-10.099-13.399-16.215-18.892c11.53-6.135,24.352-9.356,37.61-9.356c20.393,0,39.478,7.73,53.952,20.821    c-24.468,5.134-46.148,19.733-60.199,41.201c-2.268,3.466-1.298,8.114,2.168,10.383c1.267,0.829,2.691,1.226,4.101,1.226    c2.445,0,4.843-1.194,6.282-3.393c14.944-22.832,40.113-36.464,67.326-36.464c27.212,0,52.38,13.631,67.324,36.462    c2.27,3.467,6.919,4.438,10.383,2.168C512.074,496.974,513.045,492.326,510.776,488.86z" fill="#ed900c"/>
	</g>
</g>
<g>
	<g>
		<path d="M189.406,37.963c-11.142-5.729-15.017-9.617-20.732-20.796c-1.777-3.477-5.31-5.636-9.219-5.636    c-3.912,0-7.445,2.161-9.218,5.636c-5.717,11.18-9.592,15.067-20.741,20.802c-3.454,1.784-5.6,5.304-5.6,9.187    c-0.001,3.887,2.149,7.408,5.61,9.188c11.14,5.73,15.015,9.618,20.727,20.789c1.775,3.482,5.309,5.646,9.222,5.646    c3.91,0,7.443-2.161,9.219-5.637c5.717-11.18,9.593-15.067,20.735-20.799c3.459-1.781,5.608-5.302,5.608-9.188    C195.017,43.275,192.872,39.756,189.406,37.963z M159.455,62.95c-4.322-6.871-8.897-11.46-15.748-15.795    c6.849-4.334,11.425-8.924,15.747-15.796c4.323,6.873,8.899,11.463,15.749,15.796C168.354,51.489,163.777,56.08,159.455,62.95z" fill="#ed900c"/>
	</g>
</g>
<g>
	<g>
		<path d="M411.328,132.868c-7.833-4.028-10.392-6.595-14.408-14.448c-1.646-3.229-4.924-5.236-8.553-5.236    c-3.633,0-6.911,2.01-8.548,5.229c-4.019,7.859-6.577,10.427-14.413,14.457c-3.209,1.652-5.202,4.919-5.202,8.525    c0,3.603,1.99,6.869,5.204,8.528c7.834,4.028,10.393,6.596,14.401,14.436c1.643,3.236,4.922,5.247,8.558,5.247    c3.632,0,6.909-2.008,8.548-5.227c4.022-7.863,6.582-10.43,14.427-14.464c3.203-1.655,5.192-4.92,5.192-8.521    C416.534,137.79,414.542,134.524,411.328,132.868z M388.369,149.471c-2.319-3.221-4.843-5.75-8.055-8.075    c3.21-2.325,5.734-4.856,8.053-8.074c2.319,3.22,4.844,5.75,8.055,8.075C393.213,143.721,390.689,146.251,388.369,149.471z" fill="#ed900c"/>
	</g>
</g>
<g>
	<g>
		<path d="M139.237,132.869c-7.833-4.028-10.392-6.595-14.408-14.448c-1.646-3.229-4.924-5.236-8.553-5.236    c-3.637,0-6.916,2.012-8.547,5.229c-4.019,7.859-6.578,10.426-14.414,14.457c-3.209,1.652-5.202,4.919-5.202,8.525    c0,3.602,1.99,6.868,5.205,8.527c7.833,4.028,10.392,6.595,14.397,14.429c1.641,3.241,4.921,5.255,8.561,5.255    c3.632,0,6.909-2.008,8.548-5.227c4.022-7.863,6.582-10.43,14.427-14.464c3.202-1.655,5.191-4.92,5.191-8.521    C144.442,137.791,142.45,134.525,139.237,132.869z M116.278,149.47c-2.319-3.22-4.844-5.75-8.055-8.075    c3.21-2.324,5.734-4.855,8.053-8.073c2.319,3.22,4.843,5.75,8.055,8.075C121.122,143.721,118.599,146.251,116.278,149.47z" fill="#ed900c"/>
	</g>
</g>
<g>
</g>
<g>
</g>
<g>
</g>
<g>
</g>
<g>
</g>
<g>
</g>
<g>
</g>
<g>
</g>
<g>
</g>
<g>
</g>
<g>
</g>
<g>
</g>
<g>
</g>
<g>
</g>
<g>
</g>
</svg>
