<?xml version="1.0" encoding="iso-8859-1"?>
<!-- Generator: Adobe Illustrator 19.0.0, SVG Export Plug-In . SVG Version: 6.00 Build 0)  -->
<svg xmlns="http://www.w3.org/2000/svg" xmlns:xlink="http://www.w3.org/1999/xlink" version="1.1" id="Capa_1" x="0px" y="0px" viewBox="0 0 512 512" style="enable-background:new 0 0 512 512;" xml:space="preserve" width="100px" height="100px">
<g>
	<g>
		<path d="M445.984,272.929c-0.009,0-0.017-0.001-0.026-0.001c-4.143-0.119-7.599,3.143-7.718,7.286l-0.013,0.41    c-0.123,3.824-0.366,7.684-0.725,11.474c-0.39,4.127,2.64,7.788,6.766,8.178c0.158,0.015,0.315,0.025,0.472,0.03    c3.93,0.126,7.33-2.828,7.706-6.797c0.387-4.098,0.65-8.271,0.784-12.404l0.014-0.46    C453.365,276.511,450.116,273.061,445.984,272.929z" fill="#ed900c"/>
	</g>
</g>
<g>
	<g>
		<path d="M72.783,224.093c-4.038-0.94-8.073,1.566-9.016,5.603c-0.938,4.015-1.759,8.118-2.444,12.195    c-0.685,4.087,2.073,7.958,6.161,8.643c0.338,0.057,0.675,0.09,1.01,0.101c3.698,0.119,7.005-2.512,7.633-6.262    c0.631-3.767,1.391-7.557,2.257-11.265C79.328,229.072,76.82,225.036,72.783,224.093z" fill="#ed900c"/>
	</g>
</g>
<g>
	<g>
		<path d="M86.469,342.195c-1.41-3.54-2.724-7.167-3.905-10.784c-1.287-3.941-5.524-6.092-9.465-4.803    c-3.941,1.287-6.091,5.525-4.803,9.465c1.279,3.917,2.703,7.846,4.229,11.677c1.14,2.861,3.842,4.633,6.735,4.726    c1.001,0.032,2.025-0.137,3.015-0.531C86.126,350.411,88.004,346.046,86.469,342.195z" fill="#ed900c"/>
	</g>
</g>
<g>
	<g>
		<path d="M93.256,176.559c-3.629-2.004-8.194-0.687-10.197,2.943c-1.999,3.622-3.908,7.353-5.671,11.09    c-1.769,3.749-0.164,8.221,3.585,9.99c0.958,0.452,1.962,0.683,2.958,0.716c2.899,0.093,5.715-1.509,7.032-4.3    c1.628-3.451,3.39-6.896,5.237-10.241C98.202,183.128,96.884,178.561,93.256,176.559z" fill="#ed900c"/>
	</g>
</g>
<g>
	<g>
		<path d="M167.947,106.332c-2.067-3.594-6.655-4.831-10.247-2.764c-3.572,2.055-7.129,4.252-10.575,6.532    c-3.456,2.289-4.402,6.945-2.115,10.402c1.396,2.109,3.675,3.283,6.023,3.359c1.501,0.048,3.03-0.352,4.378-1.244    c3.183-2.107,6.471-4.139,9.771-6.037C168.776,114.513,170.013,109.925,167.947,106.332z" fill="#ed900c"/>
	</g>
</g>
<g>
	<g>
		<path d="M216.631,88.824c-1.015-4.019-5.092-6.453-9.115-5.439c-4.003,1.012-8.027,2.165-11.96,3.429    c-3.946,1.269-6.117,5.496-4.849,9.443c0.997,3.102,3.823,5.108,6.904,5.206c0.838,0.027,1.694-0.087,2.538-0.358    c3.631-1.167,7.345-2.233,11.042-3.166C215.21,96.924,217.646,92.843,216.631,88.824z" fill="#ed900c"/>
	</g>
</g>
<g>
	<g>
		<path d="M450.175,239.389c-0.737-4.065-1.612-8.158-2.605-12.164c-0.997-4.023-5.067-6.475-9.09-5.481    c-4.023,0.995-6.478,5.066-5.481,9.089c0.916,3.7,1.726,7.478,2.406,11.233c0.642,3.545,3.676,6.053,7.137,6.164    c0.521,0.017,1.053-0.021,1.586-0.118C448.208,247.373,450.915,243.468,450.175,239.389z" fill="#ed900c"/>
	</g>
</g>
<g>
	<g>
		<path d="M433.431,188.314c-1.809-3.707-3.761-7.403-5.8-10.99c-2.049-3.603-6.633-4.863-10.235-2.813    c-3.604,2.049-4.863,6.632-2.813,10.234c1.884,3.313,3.688,6.729,5.359,10.153c1.264,2.588,3.819,4.124,6.511,4.211    c1.182,0.038,2.391-0.204,3.527-0.759C433.705,196.532,435.25,192.039,433.431,188.314z" fill="#ed900c"/>
	</g>
</g>
<g>
	<g>
		<path d="M357.387,105.394c-3.543-2.125-7.202-4.165-10.876-6.063c-3.683-1.902-8.211-0.46-10.113,3.222    c-1.902,3.684-0.46,8.212,3.222,10.114c3.393,1.753,6.773,3.638,10.045,5.6c1.209,0.726,2.54,1.07,3.854,1.07    c2.55,0,5.037-1.3,6.444-3.646C362.096,112.137,360.942,107.527,357.387,105.394z" fill="#ed900c"/>
	</g>
</g>
<g>
	<g>
		<path d="M439.353,324.67c-3.957-1.246-8.168,0.956-9.411,4.909c-1.145,3.641-2.42,7.288-3.792,10.843    c-1.492,3.867,0.433,8.212,4.301,9.703c0.81,0.313,1.64,0.475,2.46,0.501c3.101,0.099,6.063-1.744,7.243-4.802    c1.486-3.851,2.868-7.802,4.107-11.744C445.505,330.127,443.307,325.913,439.353,324.67z" fill="#ed900c"/>
	</g>
</g>
<g>
	<g>
		<path d="M74.594,294.02c-0.396-3.787-0.679-7.643-0.838-11.461c-0.172-4.141-3.664-7.363-7.812-7.186    c-4.142,0.172-7.359,3.67-7.186,7.812c0.171,4.131,0.477,8.302,0.906,12.401c0.395,3.775,3.524,6.602,7.214,6.72    c0.341,0.01,0.687-0.002,1.034-0.039C72.035,301.835,75.027,298.142,74.594,294.02z" fill="#ed900c"/>
	</g>
</g>
<g>
	<g>
		<path d="M386.713,412.647c-2.732-3.118-7.474-3.43-10.592-0.699c-2.871,2.517-5.857,4.973-8.876,7.299    c-3.282,2.531-3.892,7.244-1.36,10.528c1.426,1.848,3.543,2.849,5.707,2.919c1.678,0.054,3.385-0.452,4.82-1.558    c3.266-2.519,6.498-5.176,9.604-7.898C389.133,420.506,389.446,415.763,386.713,412.647z" fill="#ed900c"/>
	</g>
</g>
<g>
	<g>
		<path d="M186.207,443.338c-3.556-1.391-7.114-2.914-10.577-4.529c-3.757-1.751-8.223-0.126-9.974,3.63    c-1.752,3.757-0.126,8.222,3.63,9.974c3.751,1.749,7.604,3.399,11.454,4.905c0.82,0.32,1.66,0.487,2.493,0.513    c3.087,0.099,6.041-1.729,7.23-4.77C191.974,449.202,190.068,444.847,186.207,443.338z" fill="#ed900c"/>
	</g>
</g>
<g>
	<g>
		<path d="M344.701,442.831c-1.791-3.739-6.273-5.317-10.011-3.523c-3.435,1.647-6.968,3.206-10.5,4.632    c-3.843,1.553-5.7,5.927-4.147,9.771c1.149,2.844,3.842,4.599,6.722,4.692c1.013,0.032,2.049-0.141,3.048-0.544    c3.823-1.544,7.646-3.231,11.365-5.015C344.916,451.052,346.493,446.569,344.701,442.831z" fill="#ed900c"/>
	</g>
</g>
<g>
	<g>
		<path d="M146.173,420.403c-3.047-2.302-6.059-4.728-8.953-7.215c-3.145-2.701-7.884-2.342-10.584,0.803    c-2.701,3.144-2.342,7.882,0.803,10.584c3.131,2.69,6.391,5.317,9.688,7.808c1.285,0.971,2.781,1.464,4.276,1.513    c2.355,0.076,4.708-0.956,6.237-2.979C150.137,427.608,149.482,422.901,146.173,420.403z" fill="#ed900c"/>
	</g>
</g>
<g>
	<g>
		<path d="M396.588,275.349c0-66.227-46.039-121.895-107.791-136.703l38.592-56.013c2.345-3.402,2.719-7.387,1.001-10.659    c-1.719-3.272-5.212-5.226-9.345-5.226h-30.309l12.099-55.375c0.283-1.295,1.145-5.237-1.45-8.46    C297.893,1.062,295.677,0,293.304,0c-4.485,0-6.945,3.571-7.755,4.744l-62.599,90.86c-2.345,3.402-2.719,7.387-1.001,10.659    c1.719,3.272,5.213,5.226,9.345,5.226h30.309l-5.091,23.298c-0.166-0.001-0.33-0.008-0.496-0.008    c-77.511,0-140.57,63.06-140.57,140.57c0,27.139,7.753,53.479,22.42,76.174c13.643,21.11,32.592,38.131,54.953,49.401    l3.896,14.411c-1.463,2.047-2.333,4.545-2.333,7.248v46.663c0,6.898,5.611,12.509,12.509,12.509h10.045v17.736    c0,6.898,5.611,12.509,12.509,12.509h53.142c6.898,0,12.509-5.611,12.509-12.509v-17.736h10.045    c6.898,0,12.509-5.611,12.509-12.509v-46.663c0-3.205-1.222-6.123-3.211-8.339l3.036-12.483    C365.656,378.299,396.588,329.083,396.588,275.349z M240.577,96.478l38.509-55.894l-5.938,27.18    c-0.768,3.513,0.035,7.07,2.202,9.761c2.167,2.691,5.471,4.234,9.067,4.234h25.346l-38.51,55.893l5.939-27.179    c0.768-3.513-0.035-7.07-2.202-9.761c-2.167-2.691-5.471-4.234-9.067-4.234H240.577z M206.423,393.716    c-0.573-2.122-2.048-3.886-4.035-4.826c-43.696-20.678-71.93-65.246-71.93-113.543c0-68.3,54.82-124.034,122.77-125.524    l-3.111,14.239c-58.403,3.078-104.973,51.56-104.973,110.718c0,53.238,37.718,97.825,87.834,108.46v26.832h-22.133    L206.423,393.716z M214.505,297.496c-1.382-2.607-2.517-5.337-3.37-8.109c-1.437-4.673-5.687-7.814-10.576-7.814h-12.496    l-0.001-12.041h12.497c4.888,0,9.139-3.138,10.577-7.812c0.852-2.77,1.985-5.499,3.377-8.123c0.839-1.59,1.283-3.378,1.283-5.169    c0-2.962-1.155-5.743-3.242-7.826l-8.843-8.845l8.515-8.515l8.846,8.846c2.093,2.092,4.87,3.244,7.818,3.244    c1.797,0,3.591-0.447,5.189-1.293c2.607-1.382,5.336-2.517,8.107-3.37c4.673-1.436,7.815-5.687,7.815-10.576v-12.497h12.042    v12.497c0,4.885,3.137,9.136,7.812,10.577c2.774,0.854,5.502,1.986,8.112,3.371c1.595,0.845,3.388,1.292,5.187,1.292    c2.949,0,5.726-1.153,7.82-3.245l8.844-8.845l8.514,8.515l-8.841,8.843c-2.093,2.091-3.244,4.872-3.244,7.829    c0,1.794,0.444,3.583,1.29,5.182c1.382,2.607,2.517,5.336,3.37,8.112c1.437,4.67,5.688,7.81,10.577,7.81h12.496v12.041h-12.496    c-4.887,0-9.137,3.138-10.577,7.811c-0.856,2.778-1.989,5.507-3.378,8.126c-0.839,1.589-1.282,3.376-1.282,5.169    c0,2.957,1.152,5.737,3.242,7.826l8.842,8.842l-8.514,8.515l-8.846-8.845c-2.094-2.091-4.871-3.243-7.819-3.243    c-1.797,0-3.591,0.446-5.186,1.292c-2.616,1.386-5.344,2.52-8.122,3.373c-4.666,1.443-7.802,5.692-7.802,10.574v12.497h-12.041    v-12.497c0-4.888-3.139-9.138-7.811-10.575c-2.773-0.854-5.501-1.988-8.113-3.373c-1.595-0.846-3.387-1.292-5.185-1.292    c-2.951,0-5.729,1.154-7.82,3.245l-8.845,8.843l-8.514-8.515l8.844-8.842c2.091-2.09,3.241-4.87,3.241-7.826    C215.795,300.887,215.35,299.1,214.505,297.496z M256.018,370.645c-2.705,0-5.382-0.119-8.03-0.339V358.52h16.061v11.786    C261.4,370.526,258.723,370.645,256.018,370.645z M264.048,385.363v24.711h-16.062v-24.711c2.654,0.19,5.33,0.293,8.031,0.293    C258.718,385.656,261.395,385.554,264.048,385.363z M280.087,496.989h-48.139v-15.234h48.139V496.989z M302.641,439.268h-29.612    c-4.145,0-7.505,3.36-7.505,7.505s3.36,7.505,7.505,7.505h29.612v12.466h-93.248v-0.001v-12.465h28.611    c4.145,0,7.505-3.36,7.505-7.505s-3.36-7.505-7.505-7.505h-28.611v-14.183h93.248V439.268z M307.924,389.667    c-2.098,0.955-3.641,2.819-4.185,5.058l-3.734,15.348h-20.946v-26.832c50.115-10.636,87.833-55.223,87.833-108.46    c0-16.961-3.732-33.242-11.091-48.392c-1.811-3.729-6.302-5.283-10.03-3.471c-3.729,1.811-5.283,6.303-3.471,10.03    c6.359,13.089,9.583,27.163,9.583,41.832c0,44.919-31.056,82.713-72.822,93.057v-34.768c1.111-0.446,2.216-0.915,3.304-1.428    l9.624,9.624c2.089,2.089,4.868,3.24,7.824,3.24c2.954,0,5.732-1.15,7.825-3.24l14.095-14.095    c2.089-2.091,3.241-4.869,3.241-7.823c0-2.955-1.151-5.734-3.241-7.825l-9.624-9.624c0.821-1.74,1.558-3.517,2.209-5.316h13.603    c6.101,0,11.065-4.963,11.065-11.064v-19.933c0-6.101-4.964-11.065-11.065-11.065h-13.604c-0.651-1.799-1.389-3.575-2.209-5.314    l9.618-9.62c2.094-2.089,3.247-4.87,3.247-7.83c0-2.958-1.153-5.738-3.24-7.824l-14.099-14.1c-2.09-2.087-4.867-3.236-7.82-3.236    c-2.955,0-5.733,1.15-7.825,3.24l-9.624,9.625c-1.741-0.821-3.517-1.558-5.314-2.209V203.65c0-2.953-1.15-5.73-3.245-7.829    c-2.091-2.088-4.868-3.236-7.82-3.236h-19.933c-6.101,0-11.065,4.964-11.065,11.065v13.603c-1.799,0.65-3.575,1.389-5.315,2.21    l-9.627-9.627c-2.089-2.089-4.869-3.239-7.823-3.239c-2.955,0-5.733,1.151-7.824,3.241l-14.099,14.1    c-2.086,2.089-3.236,4.867-3.236,7.82s1.149,5.73,3.239,7.823l9.625,9.626c-0.821,1.741-1.558,3.518-2.209,5.314h-13.604    c-2.952,0-5.73,1.149-7.828,3.244c-2.088,2.091-3.237,4.868-3.237,7.821l0.001,19.933c0,6.1,4.964,11.064,11.065,11.064h13.603    c0.651,1.8,1.39,3.578,2.209,5.316l-9.623,9.622c-2.091,2.089-3.242,4.869-3.242,7.827c0,2.957,1.151,5.735,3.24,7.823    l14.095,14.095c2.089,2.089,4.869,3.24,7.824,3.24s5.733-1.151,7.824-3.24l9.626-9.624c1.087,0.512,2.192,0.981,3.303,1.428    v34.768c-41.766-10.345-72.823-48.14-72.823-93.057c0-52.859,43.004-95.865,95.863-95.865c23.688,0,46.43,8.709,64.035,24.522    c3.083,2.77,7.829,2.517,10.599-0.568c2.77-3.083,2.516-7.829-0.568-10.599c-16.688-14.99-37.365-24.456-59.364-27.387    l8.865-12.867c58.007,11.06,101.993,62.15,101.993,123.33C381.577,324.444,352.667,369.317,307.924,389.667z" fill="#ed900c"/>
	</g>
</g>
<g>
	<g>
		<path d="M292.457,254.347l-15.235-15.235c-2.585-2.584-6.777-4.32-10.432-4.32h-21.546c-3.655,0-7.847,1.736-10.433,4.321    l-15.234,15.233c-2.585,2.584-4.322,6.777-4.322,10.434v21.547c0,3.656,1.736,7.848,4.321,10.432l15.235,15.234    c2.585,2.585,6.777,4.322,10.433,4.322h21.546c3.656,0,7.849-1.737,10.432-4.321l15.236-15.236    c2.584-2.585,4.32-6.777,4.32-10.432v-21.547C296.778,261.123,295.041,256.93,292.457,254.347z M281.767,286.058    c-0.029,0.087-0.073,0.194-0.114,0.276l-14.856,14.856c-0.082,0.041-0.187,0.085-0.274,0.114h-21.01    c-0.086-0.029-0.192-0.073-0.274-0.114l-14.858-14.857c-0.041-0.082-0.085-0.188-0.114-0.275v-21.011    c0.029-0.086,0.073-0.192,0.114-0.274l14.856-14.856c0.082-0.041,0.189-0.085,0.276-0.114h21.01    c0.087,0.029,0.194,0.073,0.275,0.114l14.855,14.856c0.041,0.082,0.085,0.188,0.114,0.274V286.058z" fill="#ed900c"/>
	</g>
</g>
<g>
	<g>
		<path d="M256.017,255.945c-11.008,0-19.963,8.956-19.963,19.964c0,11.008,8.956,19.963,19.963,19.963    c11.008,0,19.963-8.956,19.963-19.963C275.98,264.901,267.025,255.945,256.017,255.945z M256.017,280.861    c-2.731,0-4.953-2.222-4.953-4.953c0-2.731,2.222-4.953,4.953-4.953c2.731,0,4.953,2.222,4.953,4.953    C260.969,278.639,258.748,280.861,256.017,280.861z" fill="#ed900c"/>
	</g>
</g>
<g>
	<g>
		<path d="M144.237,137.889l-22.426-22.426c-2.931-2.931-7.684-2.931-10.614,0l-22.426,22.426c-1.408,1.407-2.199,3.316-2.199,5.307    c0,1.99,0.791,3.9,2.199,5.307l22.426,22.426c1.465,1.465,3.386,2.199,5.307,2.199c1.92,0,3.842-0.733,5.307-2.199l22.426-22.426    c1.408-1.407,2.199-3.316,2.199-5.307C146.435,141.205,145.645,139.296,144.237,137.889z M116.505,155.008l-11.813-11.812    l11.813-11.813l11.813,11.813L116.505,155.008z" fill="#ed900c"/>
	</g>
</g>
<g>
	<g>
		<path d="M420.578,129.299c-12.647-6.486-17.319-11.157-23.803-23.803c-1.285-2.505-3.863-4.081-6.679-4.081    c-2.815,0-5.394,1.575-6.679,4.081c-6.485,12.646-11.157,17.318-23.803,23.803c-2.505,1.285-4.081,3.864-4.081,6.679    c0,2.816,1.575,5.394,4.081,6.679c12.646,6.485,17.318,11.156,23.803,23.803c1.285,2.505,3.864,4.081,6.679,4.081    s5.394-1.575,6.679-4.081c6.485-12.646,11.156-17.319,23.803-23.803c2.505-1.285,4.081-3.863,4.081-6.679    C424.659,133.162,423.084,130.584,420.578,129.299z M390.096,148.385c-3.552-4.972-7.437-8.857-12.409-12.408    c4.972-3.552,8.857-7.437,12.409-12.408c3.551,4.972,7.436,8.857,12.408,12.408C397.532,139.528,393.646,143.414,390.096,148.385z    " fill="#ed900c"/>
	</g>
</g>
<g>
	<g>
		<path d="M131.924,377.567c-12.646-6.485-17.318-11.156-23.803-23.803c-1.285-2.505-3.864-4.081-6.679-4.081    c-2.815,0-5.394,1.576-6.679,4.081c-6.485,12.646-11.156,17.318-23.803,23.803c-2.505,1.285-4.081,3.863-4.081,6.679    c0,2.815,1.575,5.394,4.081,6.679c12.647,6.486,17.319,11.157,23.803,23.803c1.285,2.505,3.863,4.081,6.679,4.081    c2.815,0,5.394-1.575,6.679-4.081c6.485-12.646,11.157-17.318,23.803-23.803c2.506-1.286,4.081-3.864,4.081-6.679    C136.005,381.429,134.43,378.852,131.924,377.567z M101.443,396.653c-3.551-4.972-7.436-8.857-12.408-12.408    c4.972-3.551,8.857-7.436,12.408-12.408c3.552,4.972,7.437,8.857,12.408,12.408C108.879,387.797,104.994,391.682,101.443,396.653z    " fill="#ed900c"/>
	</g>
</g>
<g>
	<g>
		<path d="M440.954,378.385l-22.425-22.426c-2.931-2.931-7.684-2.931-10.615,0l-22.426,22.426c-2.931,2.931-2.931,7.684,0,10.615    l22.426,22.426c1.465,1.465,3.386,2.199,5.307,2.199c1.92,0,3.842-0.733,5.307-2.199L440.954,389    C443.885,386.069,443.885,381.316,440.954,378.385z M413.221,395.505l-11.813-11.813l11.813-11.813l11.813,11.813L413.221,395.505    z" fill="#ed900c"/>
	</g>
</g>
<g>
</g>
<g>
</g>
<g>
</g>
<g>
</g>
<g>
</g>
<g>
</g>
<g>
</g>
<g>
</g>
<g>
</g>
<g>
</g>
<g>
</g>
<g>
</g>
<g>
</g>
<g>
</g>
<g>
</g>
</svg>
