<?xml version="1.0" encoding="iso-8859-1"?>
<!-- Generator: Adobe Illustrator 19.0.0, SVG Export Plug-In . SVG Version: 6.00 Build 0)  -->
<svg xmlns="http://www.w3.org/2000/svg" xmlns:xlink="http://www.w3.org/1999/xlink" version="1.1" id="Layer_1" x="0px" y="0px" viewBox="0 0 512 512" style="enable-background:new 0 0 512 512;" xml:space="preserve" width="100px" height="100px">
<g>
	<g>
		<g>
			<path d="M484.75,261.737c0-57.546-21.491-112.568-60.511-154.916l-12.754,11.753c36.055,39.14,55.915,89.981,55.915,143.163     c0,89.095-55.389,165.49-133.54,196.565l-53.309-209.002l20.755-46.77l55.602,37.64l44.49-187.584L387.583,0H124.402     l-13.814,52.585l44.483,187.581l55.603-37.638l20.761,46.772l-53.313,209.003C99.983,427.229,44.597,350.834,44.597,261.737     c0-53.153,19.86-103.985,55.923-143.127l-12.759-11.753c-39.02,42.353-60.511,97.359-60.511,154.88     c0,97.188,60.911,180.406,146.553,213.497l-8.285,32.48L182.327,512l7.939-31.123c20.824,6.259,42.882,9.639,65.717,9.639     c22.84,0,44.902-3.38,65.731-9.64L329.652,512l16.812-4.285l-8.285-32.481C423.832,442.141,484.752,358.926,484.75,261.737z      M345.829,211.712l-77.12-52.199L376.82,27.303l6.7,25.5L345.829,211.712z M340.744,44.019H171.192l-21.817-26.673h213.18     L340.744,44.019z M326.557,61.368l-70.577,86.309l-70.597-86.309H326.557z M128.465,52.803l6.688-25.447l108.107,132.167     l-77.104,52.19L128.465,52.803z M255.991,171.853l30.718,20.794l-20.946,47.207h-19.538l-20.953-47.207L255.991,171.853z      M255.981,473.167c-21.355,0-41.976-3.196-61.423-9.114l52.765-206.85h17.341l52.758,206.848     C297.97,469.971,277.343,473.167,255.981,473.167z" fill="#ed900c"/>
			<polygon points="350.481,316.178 380.97,285.676 411.46,316.178 423.732,303.913 380.97,261.135 338.208,303.913    " fill="#ed900c"/>
		</g>
	</g>
</g>
<g>
</g>
<g>
</g>
<g>
</g>
<g>
</g>
<g>
</g>
<g>
</g>
<g>
</g>
<g>
</g>
<g>
</g>
<g>
</g>
<g>
</g>
<g>
</g>
<g>
</g>
<g>
</g>
<g>
</g>
</svg>
