<?xml version="1.0" encoding="iso-8859-1"?>
<!-- Generator: Adobe Illustrator 19.0.0, SVG Export Plug-In . SVG Version: 6.00 Build 0)  -->
<svg xmlns="http://www.w3.org/2000/svg" xmlns:xlink="http://www.w3.org/1999/xlink" version="1.1" id="Capa_1" x="0px" y="0px" viewBox="0 0 512 512" style="enable-background:new 0 0 512 512;" xml:space="preserve" width="100px" height="100px">
<g>
	<g>
		<path d="M390.435,173.5c-4.143,0-7.5,3.358-7.5,7.5v18.66c0,1.412-1.149,2.561-2.563,2.561h-15.185    c-3.234,0-6.105,2.074-7.121,5.145l-3.386,10.239l-10.433-12.655c-1.425-1.728-3.547-2.729-5.787-2.729h-69.096    c-2.679,0-5.155,1.429-6.495,3.749L256,217.863l-6.868-11.893c-1.34-2.32-3.816-3.749-6.495-3.749h-71.258    c-2.236,0-4.355,0.998-5.78,2.722l-10.465,12.659l-3.355-10.22c-1.012-3.079-3.886-5.16-7.126-5.16H131.63    c-1.413,0-2.563-1.148-2.563-2.561v-182.1c0-1.412,1.149-2.561,2.563-2.561h248.74c1.413,0,2.563,1.148,2.563,2.561V148    c0,4.142,3.357,7.5,7.5,7.5s7.5-3.358,7.5-7.5V17.561C397.933,7.877,390.054,0,380.37,0H131.63    c-9.684,0-17.563,7.877-17.563,17.561v182.1c0,9.682,7.879,17.56,17.563,17.56h7.591l3.059,9.314    c1.425,4.333,5.095,7.553,9.585,8.402c0.765,0.144,1.546,0.217,2.321,0.217c3.746,0,7.266-1.656,9.659-4.548l11.066-13.385h63.397    l6.842,11.847c2.232,3.863,6.39,6.262,10.851,6.262s8.618-2.399,10.853-6.264l6.84-11.845h61.229l11.03,13.38    c2.391,2.895,5.914,4.556,9.666,4.556c0.77,0,1.544-0.072,2.307-0.214c4.483-0.84,8.159-4.052,9.592-8.383l3.088-9.339h9.766    c9.684,0,17.563-7.877,17.563-17.561V181C397.935,176.858,394.578,173.5,390.435,173.5z" fill="#ed900c"/>
	</g>
</g>
<g>
	<g>
		<path d="M116.699,330.881c-4.143,0-7.5,3.358-7.5,7.5v9.423c0,4.142,3.358,7.5,7.5,7.5c4.143,0,7.5-3.358,7.5-7.5v-9.423    C124.199,334.239,120.842,330.881,116.699,330.881z" fill="#ed900c"/>
	</g>
</g>
<g>
	<g>
		<path d="M163.033,330.881c-4.143,0-7.5,3.358-7.5,7.5v9.423c0,4.142,3.358,7.5,7.5,7.5c4.143,0,7.5-3.358,7.5-7.5v-9.423    C170.533,334.239,167.176,330.881,163.033,330.881z" fill="#ed900c"/>
	</g>
</g>
<g>
	<g>
		<path d="M156.752,366.002c-4.143,0-7.5,3.358-7.5,7.5c0,0.194-0.158,0.352-0.354,0.352h-18.063c-0.195,0-0.354-0.158-0.354-0.352    c0-4.142-3.357-7.5-7.5-7.5c-4.142,0-7.5,3.358-7.5,7.5c0,8.465,6.888,15.352,15.354,15.352h18.063    c8.466,0,15.354-6.887,15.354-15.352C164.252,369.36,160.895,366.002,156.752,366.002z" fill="#ed900c"/>
	</g>
</g>
<g>
	<g>
		<path d="M445.216,405.816H412.03c-0.241-0.632-0.536-1.238-0.873-1.816c8.343-6.585,14.585-15.707,17.555-26.196    c0.198,0.005,0.392,0.028,0.591,0.028c11.931,0,21.638-9.704,21.638-21.632v-13.348c0-3.683-0.928-7.152-2.558-10.19v-20.476    c0-20.21-7.977-38.796-22.46-52.335c-14.132-13.21-33.169-20.485-53.603-20.485c-20.434,0-39.47,7.275-53.602,20.485    c-1.588,1.484-3.084,3.038-4.512,4.64c-1.429-1.601-2.924-3.156-4.512-4.64c-14.132-13.21-33.168-20.485-53.602-20.485    s-39.471,7.275-53.603,20.485c-1.589,1.485-3.085,3.042-4.516,4.643c-3.123-3.511-6.614-6.747-10.466-9.643    c-3.313-2.491-8.013-1.826-10.503,1.485c-2.489,3.31-1.824,8.012,1.485,10.502c4.018,3.023,7.533,6.451,10.515,10.217    c-4.359,7.821-7.175,16.459-8.345,25.56H89.04c-4.143,0-7.5,3.358-7.5,7.5v11.143c-0.929,0.054-1.841,0.169-2.735,0.337v-9.409    c0-32.963,26.251-57.82,61.061-57.82c5.252,0,10.442,0.588,15.427,1.749c4.033,0.939,8.065-1.569,9.006-5.603    c0.939-4.034-1.569-8.066-5.604-9.006c-6.099-1.42-12.434-2.14-18.829-2.14c-20.434,0-39.47,7.275-53.602,20.485    c-14.483,13.538-22.46,32.125-22.46,52.335v20.329c-1.679,3.073-2.635,6.596-2.635,10.337V356.2    c0,11.928,9.706,21.632,21.636,21.632c0.226,0,0.444-0.025,0.668-0.033c2.954,10.438,9.147,19.522,17.428,26.1    c-0.361,0.608-0.676,1.248-0.931,1.917H66.784c-12.699,0-23.03,10.33-23.03,23.026V504.5c0,4.142,3.357,7.5,7.5,7.5H291    c4.143,0,7.5-3.358,7.5-7.5c0-4.142-3.357-7.5-7.5-7.5h-14.273l-5.85-40.644l2.824-2.466c0.36-0.314,0.701-0.655,1.027-1.01    c2.803-0.181,5.46-1.286,7.555-3.18l8.155-7.374c3.639-3.289,6.18-9.012,6.18-13.916v-7.594h32.371    c4.428,0,8.029,3.601,8.029,8.026V497H324h-3c-4.143,0-7.5,3.358-7.5,7.5c0,4.142,3.357,7.5,7.5,7.5h139.746    c4.143,0,7.5-3.358,7.5-7.5v-75.658C468.246,416.146,457.915,405.816,445.216,405.816z M81.54,362.709    c-3.056-0.593-5.37-3.284-5.37-6.508v-13.348c0-3.225,2.314-5.917,5.37-6.509V362.709z M435.94,342.854v13.347    c0,3.197-2.276,5.872-5.294,6.495v-26.339C433.664,336.98,435.94,339.656,435.94,342.854z M372.32,254.367    c34.811,0,61.063,24.857,61.063,57.82v9.423c-0.895-0.171-1.807-0.288-2.736-0.345v-11.149c0-4.142-3.357-7.5-7.5-7.5h-91.622    c-1.171-9.108-3.989-17.753-8.355-25.579C334.106,263.086,351.71,254.367,372.32,254.367z M319.713,342.853v13.348    c0,3.197-2.276,5.873-5.294,6.495v-26.34C317.436,336.979,319.713,339.655,319.713,342.853z M195.032,312.186    c-0.001-32.962,26.25-57.819,61.062-57.819c34.81,0,61.061,24.857,61.061,57.82v9.423c-0.894-0.171-1.808-0.288-2.736-0.345    v-11.149c0-4.142-3.357-7.5-7.5-7.5h-35.385c-2.8,0-5.367,1.56-6.657,4.045c-2.509,4.835-7.443,7.838-12.877,7.838h-46.732    c-3.892,0-7.089,2.963-7.463,6.756c-0.941,0.053-1.867,0.169-2.773,0.34V312.186z M192.397,342.852    c0-3.225,2.315-5.917,5.371-6.509v26.365c-3.056-0.593-5.371-3.284-5.371-6.508V342.852z M196.29,377.652    c0.9,0.115,1.814,0.18,2.743,0.18c0.226,0,0.444-0.025,0.668-0.033c2.954,10.438,9.147,19.522,17.428,26.1    c-0.361,0.608-0.676,1.248-0.931,1.917h-3.436h-29.751h-3.436c-0.241-0.633-0.537-1.239-0.874-1.818    C187.078,397.382,193.339,388.204,196.29,377.652z M132.272,497H58.754v-68.158c0-4.425,3.603-8.026,8.03-8.026h32.37v7.594    c0,4.905,2.541,10.627,6.179,13.916l8.157,7.375c2.294,2.074,5.263,3.216,8.359,3.216c3.552,0,6.943-1.517,9.303-4.161l1.12-1.254    V497z M114.153,428.411v-10.234h0.001c1.275,2.873,3.246,5.485,5.577,7.181l7.402,5.38l-5.474,6.129l-6.257-5.657    C114.893,430.712,114.181,429.108,114.153,428.411z M130.899,414.932c0.567,0.019,1.133,0.043,1.705,0.043h14.522    c0.504,0,1.004-0.02,1.504-0.035l-8.859,6.44L130.899,414.932z M159.982,497h-12.709v-49.498l1.12,1.254    c2.36,2.645,5.751,4.161,9.304,4.162c0.772,0,1.537-0.071,2.285-0.211V497z M159.982,428.843v6.128l-2.097,1.896l-5.475-6.129    l7.403-5.381c0.17-0.124,0.336-0.26,0.502-0.393C160.1,426.226,159.982,427.521,159.982,428.843z M147.127,399.975h-14.522    c-19.886,0-36.065-16.174-36.065-36.056c0,0,0-46.303,0-46.303h83.491v14.899c-1.679,3.073-2.635,6.596-2.635,10.337V356.2    c0,5.37,1.972,10.285,5.223,14.071C179.608,387.132,164.845,399.975,147.127,399.975z M235.273,497h-60.292v-68.158    c0-4.425,3.602-8.026,8.029-8.026h32.371v7.594c0,4.905,2.541,10.627,6.179,13.916l8.157,7.375    c2.094,1.893,4.751,2.999,7.554,3.179c0.327,0.355,0.668,0.696,1.028,1.011l2.823,2.465L235.273,497z M237.887,436.867    l-6.257-5.657c-0.509-0.498-1.221-2.102-1.249-2.799v-10.234h0.001c1.275,2.873,3.246,5.485,5.578,7.181l7.401,5.38    L237.887,436.867z M250.429,497l4.618-32.086c0.316,0.022,0.633,0.042,0.953,0.042s0.637-0.02,0.953-0.042L261.571,497H250.429z     M250.817,444.908l5.183-5.803l5.183,5.803L256,449.432L250.817,444.908z M256,421.38l-8.873-6.448    c0.567,0.019,1.133,0.043,1.705,0.043h14.522c0.507,0,1.007-0.023,1.51-0.038L256,421.38z M281.617,428.397    c-0.027,0.711-0.739,2.315-1.238,2.804l-6.267,5.666l-5.474-6.13l7.403-5.381c2.331-1.695,4.301-4.308,5.576-7.181V428.397z     M263.354,399.976h-14.522c-19.886,0-36.064-16.174-36.064-36.056V329.5H252c9.447,0,18.15-4.456,23.664-11.884h23.755v46.304    C299.419,383.801,283.24,399.976,263.354,399.976z M332.34,406.063c-1.094-0.16-2.213-0.247-3.351-0.247h-33.186v0    c-0.241-0.632-0.536-1.238-0.873-1.816c8.343-6.585,14.585-15.707,17.555-26.196c0.198,0.005,0.393,0.028,0.592,0.028    c0.955,0,1.895-0.069,2.817-0.189c2.935,10.502,9.147,19.645,17.464,26.255C332.953,404.581,332.612,405.304,332.34,406.063z     M329.554,370.198c3.214-3.776,5.159-8.663,5.159-13.997v-13.348c0-3.683-0.928-7.152-2.558-10.191v-15.046h83.491v46.304h0.001    c0,19.881-16.179,36.056-36.065,36.056H365.06C347.317,399.976,332.536,387.096,329.554,370.198z M397.846,418.175v10.222    c-0.028,0.711-0.74,2.315-1.239,2.804l-6.267,5.666l-5.475-6.13l7.403-5.38C394.6,423.662,396.571,421.048,397.846,418.175z     M351.685,424.965c0.166,0.133,0.331,0.269,0.501,0.393l7.402,5.38l-5.474,6.129l-2.097-1.896v-6.129    C352.019,427.521,351.9,426.227,351.685,424.965z M364.728,497h-12.709v-44.293c0.748,0.139,1.513,0.211,2.285,0.211    c3.552,0,6.943-1.517,9.303-4.16l1.121-1.255V497z M363.36,414.936c0.565,0.019,1.13,0.04,1.7,0.04h14.522    c0.506,0,1.006-0.023,1.509-0.038l-8.864,6.442L363.36,414.936z M379.727,497v-49.497l1.119,1.253    c2.36,2.645,5.752,4.162,9.304,4.162c3.097,0,6.065-1.142,8.36-3.217l8.155-7.374c3.639-3.289,6.18-9.012,6.18-13.916v-7.594    h32.37c4.428,0,8.03,3.601,8.03,8.026V497H379.727z" fill="#ed900c"/>
	</g>
</g>
<g>
	<g>
		<path d="M349.154,330.881c-4.143,0-7.5,3.358-7.5,7.5v9.423c0,4.142,3.358,7.5,7.5,7.5c4.143,0,7.5-3.358,7.5-7.5v-9.423    C356.654,334.239,353.297,330.881,349.154,330.881z" fill="#ed900c"/>
	</g>
</g>
<g>
	<g>
		<path d="M395.488,330.881c-4.143,0-7.5,3.358-7.5,7.5v9.423c0,4.142,3.358,7.5,7.5,7.5c4.143,0,7.5-3.358,7.5-7.5v-9.423    C402.988,334.239,399.631,330.881,395.488,330.881z" fill="#ed900c"/>
	</g>
</g>
<g>
	<g>
		<path d="M389.206,366.002c-4.143,0-7.5,3.358-7.5,7.5c0,0.194-0.158,0.352-0.354,0.352h-18.063c-0.195,0-0.354-0.158-0.354-0.352    c0-4.142-3.357-7.5-7.5-7.5c-4.142,0-7.5,3.358-7.5,7.5c0,8.465,6.888,15.352,15.354,15.352h18.063    c8.466,0,15.354-6.887,15.354-15.352C396.706,369.36,393.349,366.002,389.206,366.002z" fill="#ed900c"/>
	</g>
</g>
<g>
	<g>
		<path d="M232.927,330.881c-4.143,0-7.5,3.358-7.5,7.5v9.423c0,4.142,3.357,7.5,7.5,7.5c4.142,0,7.5-3.358,7.5-7.5v-9.423    C240.427,334.239,237.07,330.881,232.927,330.881z" fill="#ed900c"/>
	</g>
</g>
<g>
	<g>
		<path d="M279.261,330.881c-4.143,0-7.5,3.358-7.5,7.5v9.423c0,4.142,3.357,7.5,7.5,7.5s7.5-3.358,7.5-7.5v-9.423    C286.761,334.239,283.403,330.881,279.261,330.881z" fill="#ed900c"/>
	</g>
</g>
<g>
	<g>
		<path d="M272.978,366.002c-4.143,0-7.5,3.358-7.5,7.5c0,0.194-0.158,0.352-0.353,0.352h-18.063c-0.195,0-0.355-0.158-0.355-0.352    c0-4.142-3.357-7.5-7.5-7.5s-7.5,3.358-7.5,7.5c0,8.465,6.888,15.352,15.355,15.352h18.063c8.466,0,15.353-6.887,15.353-15.352    C280.478,369.36,277.121,366.002,272.978,366.002z" fill="#ed900c"/>
	</g>
</g>
<g>
	<g>
		<path d="M316.228,83.355c0-33.203-27.018-60.215-60.228-60.215c-33.21,0-60.229,27.013-60.229,60.215    c0,21.974,12.188,42.336,31.333,52.834l1.398,5.175c-0.924,1.743-1.452,3.726-1.452,5.833v15.492    c0,5.654,3.775,10.437,8.937,11.976v6.321c0,6.893,5.607,12.5,12.5,12.5h15.025c6.893,0,12.5-5.607,12.5-12.5v-6.321    c5.16-1.539,8.936-6.321,8.936-11.975v-15.492c0-2.314-0.644-4.475-1.743-6.336l1.055-4.336    C303.797,126.128,316.228,105.65,316.228,83.355z M261.012,178.485h-10.025v-3.296h10.025V178.485z M269.948,160.189h-27.897    v-10.492h27.897V160.189z M256,77.433c-4.143,0-7.5,3.358-7.5,7.5v7.971c-2.832-2.228-4.661-5.676-4.661-9.549    c0-6.703,5.455-12.155,12.161-12.155s12.161,5.453,12.161,12.155c0,3.874-1.829,7.322-4.661,9.549v-7.971    C263.5,80.791,260.143,77.433,256,77.433z M274.695,124.524c-2.097,0.953-3.639,2.816-4.183,5.054l-1.245,5.119H263.5v-25.248    c11.339-3.263,19.661-13.722,19.661-26.094c0-14.974-12.185-27.155-27.161-27.155s-27.161,12.182-27.161,27.155    c0,12.373,8.322,22.832,19.661,26.094v25.248h-6.261l-1.521-5.629c-0.573-2.121-2.047-3.883-4.032-4.822    c-15.743-7.449-25.915-23.499-25.915-40.891c0-24.932,20.289-45.215,45.229-45.215s45.228,20.284,45.228,45.215    C301.228,101.035,290.813,117.195,274.695,124.524z" fill="#ed900c"/>
	</g>
</g>
<g>
	<g>
		<path d="M355.391,73.5h-8.379c-4.143,0-7.5,3.358-7.5,7.5c0,4.142,3.357,7.5,7.5,7.5h8.379c4.143,0,7.5-3.358,7.5-7.5    C362.891,76.858,359.534,73.5,355.391,73.5z" fill="#ed900c"/>
	</g>
</g>
<g>
	<g>
		<path d="M341.843,33.575c-2.927-2.933-7.676-2.936-10.607-0.011l-5.925,5.913c-2.932,2.926-2.936,7.674-0.011,10.606    c1.465,1.468,3.387,2.202,5.309,2.202c1.917,0,3.834-0.73,5.298-2.191l5.925-5.912C344.764,41.256,344.769,36.508,341.843,33.575z    " fill="#ed900c"/>
	</g>
</g>
<g>
	<g>
		<path d="M344.167,118.781l-5.927-5.911c-2.934-2.925-7.683-2.919-10.606,0.015c-2.925,2.933-2.918,7.682,0.015,10.606l5.926,5.911    c1.464,1.46,3.38,2.189,5.296,2.189c1.923,0,3.846-0.735,5.311-2.204C347.107,126.454,347.1,121.705,344.167,118.781z" fill="#ed900c"/>
	</g>
</g>
<g>
	<g>
		<path d="M164.988,73.5h-8.379c-4.143,0-7.5,3.358-7.5,7.5c0,4.142,3.357,7.5,7.5,7.5h8.379c4.143,0,7.5-3.358,7.5-7.5    C172.488,76.858,169.131,73.5,164.988,73.5z" fill="#ed900c"/>
	</g>
</g>
<g>
	<g>
		<path d="M186.689,39.477l-5.925-5.913c-2.933-2.926-7.682-2.922-10.607,0.011c-2.926,2.932-2.921,7.681,0.011,10.607l5.925,5.912    c1.464,1.461,3.381,2.192,5.298,2.192c1.922,0,3.844-0.734,5.309-2.202C189.625,47.151,189.62,42.402,186.689,39.477z" fill="#ed900c"/>
	</g>
</g>
<g>
	<g>
		<path d="M184.367,112.886c-2.924-2.933-7.673-2.94-10.606-0.015l-5.927,5.911c-2.933,2.925-2.939,7.674-0.015,10.606    c1.464,1.469,3.387,2.204,5.31,2.204c1.916,0,3.832-0.73,5.296-2.189l5.927-5.911    C187.285,120.567,187.291,115.818,184.367,112.886z" fill="#ed900c"/>
	</g>
</g>
<g>
</g>
<g>
</g>
<g>
</g>
<g>
</g>
<g>
</g>
<g>
</g>
<g>
</g>
<g>
</g>
<g>
</g>
<g>
</g>
<g>
</g>
<g>
</g>
<g>
</g>
<g>
</g>
<g>
</g>
</svg>
